<svg width="128" height="128" viewBox="0 0 128 128" fill="none" xmlns="http://www.w3.org/2000/svg">
<g filter="url(#filter0_i_4_27026)">
<path fill-rule="evenodd" clip-rule="evenodd" d="M76.9609 10.6734C55.6689 22.628 29.66 39.5778 31.1028 53.3647C32.09 62.7979 41.4407 65.717 50.4297 68.5231C66.0188 73.3897 80.5203 77.9168 48.4252 115.492L16.5 97.0602C13.406 95.2739 11.5 91.9726 11.5 88.4V39.3C11.5 35.7273 13.406 32.4261 16.5 30.6397L59.0218 6.08975C62.1159 4.30342 65.9278 4.30342 69.0218 6.08975L76.9609 10.6734Z" fill="url(#paint0_linear_4_27026)"/>
</g>
<g filter="url(#filter1_i_4_27026)">
<path fill-rule="evenodd" clip-rule="evenodd" d="M76.9725 10.7321C55.6805 22.6866 29.6716 39.6365 31.1144 53.4234C32.1015 62.8566 41.4522 65.7757 50.4412 68.5818C66.0303 73.4484 80.5318 77.9755 48.4367 115.551L53.5816 118.521C55.7553 116.412 57.9719 114.286 60.1926 112.157C85.0916 88.2848 110.495 63.9285 81.5668 55.4001C46.5 45.062 58.0917 30.298 83.3064 14.3889L76.9725 10.7321Z" fill="url(#paint1_linear_4_27026)"/>
</g>
<g filter="url(#filter2_i_4_27026)">
<path fill-rule="evenodd" clip-rule="evenodd" d="M53.5266 118.518L58.9783 121.666C62.0723 123.452 65.8843 123.452 68.9783 121.666L111.5 97.1159C114.594 95.3296 116.5 92.0283 116.5 88.4556V39.3556C116.5 35.783 114.594 32.4817 111.5 30.6954L83.409 14.4769C56.0263 30.5494 48.4073 45.6376 81.5117 55.3972C110.44 63.9256 85.0366 88.2819 60.1375 112.154C57.9169 114.283 55.7003 116.409 53.5266 118.518Z" fill="url(#paint2_linear_4_27026)"/>
</g>
<defs>
<filter id="filter0_i_4_27026" x="11.5" y="4.75" width="65.4609" height="118.742" filterUnits="userSpaceOnUse" color-interpolation-filters="sRGB">
<feFlood flood-opacity="0" result="BackgroundImageFix"/>
<feBlend mode="normal" in="SourceGraphic" in2="BackgroundImageFix" result="shape"/>
<feColorMatrix in="SourceAlpha" type="matrix" values="0 0 0 0 0 0 0 0 0 0 0 0 0 0 0 0 0 0 127 0" result="hardAlpha"/>
<feOffset dy="8"/>
<feGaussianBlur stdDeviation="5"/>
<feComposite in2="hardAlpha" operator="arithmetic" k2="-1" k3="1"/>
<feColorMatrix type="matrix" values="0 0 0 0 0.474186 0 0 0 0 1 0 0 0 0 0.769745 0 0 0 0.27 0"/>
<feBlend mode="normal" in2="shape" result="effect1_innerShadow_4_27026"/>
</filter>
<filter id="filter1_i_4_27026" x="31.0569" y="10.7321" width="63.3884" height="127.789" filterUnits="userSpaceOnUse" color-interpolation-filters="sRGB">
<feFlood flood-opacity="0" result="BackgroundImageFix"/>
<feBlend mode="normal" in="SourceGraphic" in2="BackgroundImageFix" result="shape"/>
<feColorMatrix in="SourceAlpha" type="matrix" values="0 0 0 0 0 0 0 0 0 0 0 0 0 0 0 0 0 0 127 0" result="hardAlpha"/>
<feOffset dy="20"/>
<feGaussianBlur stdDeviation="10"/>
<feComposite in2="hardAlpha" operator="arithmetic" k2="-1" k3="1"/>
<feColorMatrix type="matrix" values="0 0 0 0 0.0173133 0 0 0 0 0.212321 0 0 0 0 0.149919 0 0 0 1 0"/>
<feBlend mode="normal" in2="shape" result="effect1_innerShadow_4_27026"/>
</filter>
<filter id="filter2_i_4_27026" x="53.5266" y="14.4769" width="62.9736" height="128.529" filterUnits="userSpaceOnUse" color-interpolation-filters="sRGB">
<feFlood flood-opacity="0" result="BackgroundImageFix"/>
<feBlend mode="normal" in="SourceGraphic" in2="BackgroundImageFix" result="shape"/>
<feColorMatrix in="SourceAlpha" type="matrix" values="0 0 0 0 0 0 0 0 0 0 0 0 0 0 0 0 0 0 127 0" result="hardAlpha"/>
<feOffset dy="20"/>
<feGaussianBlur stdDeviation="10"/>
<feComposite in2="hardAlpha" operator="arithmetic" k2="-1" k3="1"/>
<feColorMatrix type="matrix" values="0 0 0 0 0.857546 0 0 0 0 0.909473 0 0 0 0 0.685539 0 0 0 0.15 0"/>
<feBlend mode="normal" in2="shape" result="effect1_innerShadow_4_27026"/>
</filter>
<linearGradient id="paint0_linear_4_27026" x1="44.2305" y1="4.75" x2="44.2305" y2="115.492" gradientUnits="userSpaceOnUse">
<stop stop-color="#2DF093"/>
<stop offset="1" stop-color="#004442"/>
</linearGradient>
<linearGradient id="paint1_linear_4_27026" x1="62.7511" y1="10.7321" x2="62.7511" y2="118.521" gradientUnits="userSpaceOnUse">
<stop stop-color="#054628"/>
<stop offset="0.9999" stop-color="#072D28"/>
<stop offset="1" stop-color="#B1B1B1"/>
</linearGradient>
<linearGradient id="paint2_linear_4_27026" x1="85.0134" y1="14.4769" x2="85.0134" y2="123.006" gradientUnits="userSpaceOnUse">
<stop stop-color="#FDFFA3"/>
<stop offset="1" stop-color="#003C40"/>
</linearGradient>
</defs>
</svg>
